CD_ROM


// Track 1
TRACK AUDIO
NO COPY
NO PRE_EMPHASIS
TWO_CHANNEL_AUDIO
ISRC "GBAAA0300350"
FILE "data.wav" 0 04:33:60


// Track 2
TRACK AUDIO
NO COPY
NO PRE_EMPHASIS
TWO_CHANNEL_AUDIO
ISRC "GBAAA0300351"
FILE "data.wav" 04:33:60 04:16:35


// Track 3
TRACK AUDIO
NO COPY
NO PRE_EMPHASIS
TWO_CHANNEL_AUDIO
ISRC "GBAAA0300352"
FILE "data.wav" 08:50:20 03:03:70


// Track 4
TRACK AUDIO
NO COPY
NO PRE_EMPHASIS
TWO_CHANNEL_AUDIO
ISRC "GBAAA0300353"
FILE "data.wav" 11:54:15 02:16:10


// Track 5
TRACK AUDIO
NO COPY
NO PRE_EMPHASIS
TWO_CHANNEL_AUDIO
ISRC "GBAAA0300355"
FILE "data.wav" 14:10:25 03:32:25


// Track 6
TRACK AUDIO
NO COPY
NO PRE_EMPHASIS
TWO_CHANNEL_AUDIO
ISRC "GBAAA0300356"
FILE "data.wav" 17:42:50 03:09:50


// Track 7
TRACK AUDIO
NO COPY
NO PRE_EMPHASIS
TWO_CHANNEL_AUDIO
ISRC "GBAAA0300357"
FILE "data.wav" 20:52:25 02:26:60


// Track 8
TRACK AUDIO
NO COPY
NO PRE_EMPHASIS
TWO_CHANNEL_AUDIO
ISRC "GBAAA0300358"
FILE "data.wav" 23:19:10 02:46:60


// Track 9
TRACK AUDIO
NO COPY
NO PRE_EMPHASIS
TWO_CHANNEL_AUDIO
ISRC "GBAAA0300359"
FILE "data.wav" 26:05:70 05:02:72


// Track 10
TRACK AUDIO
NO COPY
NO PRE_EMPHASIS
TWO_CHANNEL_AUDIO
ISRC "GBAAA0300360"
FILE "data.wav" 31:08:67 03:50:43


// Track 11
TRACK AUDIO
NO COPY
NO PRE_EMPHASIS
TWO_CHANNEL_AUDIO
ISRC "GBAAA0300361"
FILE "data.wav" 34:59:35 06:04:20


// Track 12
TRACK MODE1
NO COPY
ZERO MODE1 00:02:00
DATAFILE "data_12" 27:30:00 // length in bytes: 253440000
START 00:02:00

